<svg width="257" height="290" viewBox="0 0 257 290" fill="none" xmlns="http://www.w3.org/2000/svg">
<g clip-path="url(#clip0)">
<path d="M0.584743 63.12C-1.14028 72.7831 0.238294 134.836 14.7025 161.373C31.9023 192.937 51.3467 190.809 59.4666 213.453C69.1455 240.459 67.7814 263.737 67.7814 263.737H115.678C115.678 263.737 119.222 207.756 113.938 177.18C110.712 158.51 65.2335 116.361 58.6726 108.666C52.1118 100.972 39.3004 108.464 44.1507 116.728C49.001 124.992 71.2025 152.136 71.4913 157.551C71.78 162.967 55.302 151.66 44.4683 137.98C33.6345 124.3 30.632 92.34 25.2403 70.8793C20.4189 51.7407 4.29463 42.3156 0.584743 63.12Z" fill="#FDEEE9"/>
<path d="M120.839 256.773H60.4771V284.594H120.839V256.773Z" fill="#FDEEE9"/>
<path d="M126.252 290.001H55.0637V251.363H126.252V290.001ZM65.8902 279.184H115.425V262.18H65.8902V279.184Z" fill="#2D9CDB"/>
<path d="M256.423 63.12C258.148 72.7831 256.769 134.836 242.305 161.373C225.105 192.937 205.661 190.802 197.541 213.453C187.862 240.459 189.226 263.737 189.226 263.737H141.322C141.322 263.737 137.778 207.756 143.062 177.18C146.288 158.51 191.767 116.361 198.327 108.666C204.888 100.972 217.7 108.464 212.849 116.728C207.999 124.992 185.798 152.136 185.509 157.551C185.22 162.967 201.698 151.66 212.532 137.98C223.373 124.3 226.368 92.34 231.76 70.8793C236.581 51.7407 252.713 42.3156 256.423 63.12Z" fill="#FDEEE9"/>
<path d="M196.523 256.773H136.162V284.594H196.523V256.773Z" fill="#FDEEE9"/>
<path d="M201.944 290.001H130.756V251.363H201.944V290.001ZM141.575 279.184H191.11V262.18H141.575V279.184Z" fill="#2D9CDB"/>
<path d="M185.386 46.6491C185.386 26.8614 171.81 10.8164 155.065 10.8164C143.625 10.8164 133.664 18.3089 128.496 29.3709C123.343 18.3089 113.382 10.8164 101.935 10.8164C85.1902 10.8164 71.6138 26.8614 71.6138 46.6491C71.6138 47.7019 71.6571 48.7331 71.7292 49.7643C72.1984 58.7639 78.1025 87.068 127.876 131.972H129.023C166.671 98.0075 179.215 73.5398 183.3 59.7374C184.643 55.6847 185.386 51.2715 185.386 46.6491Z" fill="#BF232D"/>
<path d="M129.023 142.79H127.876C125.198 142.79 122.607 141.795 120.622 139.999C98.3337 119.894 81.9352 100.611 71.8737 82.6913C63.4795 67.7496 61.2854 56.9255 60.9245 50.4426C60.8307 49.1734 60.7874 47.8971 60.7874 46.6495C60.7874 34.5274 64.8509 23.0471 72.2274 14.3287C80.0441 5.09114 90.5964 0 101.935 0C111.86 0 121.207 3.99503 128.504 10.9755C135.794 3.99503 145.148 0 155.065 0C166.404 0 176.956 5.09114 184.773 14.3287C192.149 23.0471 196.213 34.5274 196.213 46.6495C196.213 52.2671 195.347 57.7548 193.629 62.9758C185.097 91.5683 157.742 120.637 136.277 140.006C134.292 141.795 131.701 142.79 129.023 142.79ZM101.935 21.6337C97.0779 21.6337 92.4008 23.999 88.7631 28.2969C84.6851 33.114 82.4404 39.633 82.4404 46.6495C82.4404 47.4067 82.4693 48.1927 82.527 48.9787C82.5342 49.0509 82.5342 49.1302 82.5414 49.2023C82.6858 51.9498 83.7684 59.673 90.7552 72.1124C98.6657 86.196 111.326 101.527 128.439 117.76C144.512 102.457 166.454 78.516 172.914 56.6731C172.95 56.5578 172.986 56.4424 173.022 56.3342C174.04 53.2694 174.56 50.01 174.56 46.6495C174.56 39.633 172.315 33.114 168.237 28.2969C164.599 23.999 159.922 21.6337 155.065 21.6337C148.273 21.6337 141.856 26.3499 138.312 33.9433C136.537 37.7508 132.704 40.1882 128.504 40.1882C124.296 40.1882 120.47 37.7508 118.695 33.9433C115.144 26.3499 108.727 21.6337 101.935 21.6337Z" fill="#FDEEE9"/>
</g>
<defs>
<clipPath id="clip0">
<rect width="257" height="290" fill="white"/>
</clipPath>
</defs>
</svg>
